<mxfile host="app.diagrams.net" modified="2022-01-31T19:43:38.785Z" agent="5.0 (Windows)" etag="kE5OQZXjc7SdqOJt5l2t" version="16.5.2" type="github">
  <diagram id="C5RBs43oDa-KdzZeNtuy" name="Page-1">
    <mxGraphModel dx="1278" dy="564" grid="1" gridSize="10" guides="1" tooltips="1" connect="1" arrows="1" fold="1" page="1" pageScale="1" pageWidth="827" pageHeight="1169" math="0" shadow="0">
      <root>
        <mxCell id="WIyWlLk6GJQsqaUBKTNV-0" />
        <mxCell id="WIyWlLk6GJQsqaUBKTNV-1" parent="WIyWlLk6GJQsqaUBKTNV-0" />
        <mxCell id="-sEy0Zp4iv_lZndmS8OM-0" value="Escudo10" style="swimlane;fontStyle=1;align=center;verticalAlign=top;childLayout=stackLayout;horizontal=1;startSize=26;horizontalStack=0;resizeParent=1;resizeParentMax=0;resizeLast=0;collapsible=1;marginBottom=0;" vertex="1" parent="WIyWlLk6GJQsqaUBKTNV-1">
          <mxGeometry x="300" y="260" width="254" height="60" as="geometry" />
        </mxCell>
        <mxCell id="-sEy0Zp4iv_lZndmS8OM-2" value="" style="line;strokeWidth=1;fillColor=none;align=left;verticalAlign=middle;spacingTop=-1;spacingLeft=3;spacingRight=3;rotatable=0;labelPosition=right;points=[];portConstraint=eastwest;" vertex="1" parent="-sEy0Zp4iv_lZndmS8OM-0">
          <mxGeometry y="26" width="254" height="8" as="geometry" />
        </mxCell>
        <mxCell id="-sEy0Zp4iv_lZndmS8OM-3" value="+ processaDano(Personagem p,int valor): void&#xa;&#xa;&#xa;" style="text;strokeColor=none;fillColor=none;align=left;verticalAlign=top;spacingLeft=4;spacingRight=4;overflow=hidden;rotatable=0;points=[[0,0.5],[1,0.5]];portConstraint=eastwest;" vertex="1" parent="-sEy0Zp4iv_lZndmS8OM-0">
          <mxGeometry y="34" width="254" height="26" as="geometry" />
        </mxCell>
        <mxCell id="-sEy0Zp4iv_lZndmS8OM-4" value="AtaqueAdversario" style="swimlane;fontStyle=1;align=center;verticalAlign=top;childLayout=stackLayout;horizontal=1;startSize=26;horizontalStack=0;resizeParent=1;resizeParentMax=0;resizeLast=0;collapsible=1;marginBottom=0;" vertex="1" parent="WIyWlLk6GJQsqaUBKTNV-1">
          <mxGeometry x="284" y="40" width="276" height="118" as="geometry" />
        </mxCell>
        <mxCell id="-sEy0Zp4iv_lZndmS8OM-5" value="- sucessor: AtaqueAdversario;&#xa;- nivelDano: int;" style="text;strokeColor=none;fillColor=none;align=left;verticalAlign=top;spacingLeft=4;spacingRight=4;overflow=hidden;rotatable=0;points=[[0,0.5],[1,0.5]];portConstraint=eastwest;" vertex="1" parent="-sEy0Zp4iv_lZndmS8OM-4">
          <mxGeometry y="26" width="276" height="44" as="geometry" />
        </mxCell>
        <mxCell id="-sEy0Zp4iv_lZndmS8OM-6" value="" style="line;strokeWidth=1;fillColor=none;align=left;verticalAlign=middle;spacingTop=-1;spacingLeft=3;spacingRight=3;rotatable=0;labelPosition=right;points=[];portConstraint=eastwest;" vertex="1" parent="-sEy0Zp4iv_lZndmS8OM-4">
          <mxGeometry y="70" width="276" height="8" as="geometry" />
        </mxCell>
        <mxCell id="-sEy0Zp4iv_lZndmS8OM-7" value="+ processaDano(Personagem p,int valor): void&#xa;" style="text;strokeColor=none;fillColor=none;align=left;verticalAlign=top;spacingLeft=4;spacingRight=4;overflow=hidden;rotatable=0;points=[[0,0.5],[1,0.5]];portConstraint=eastwest;" vertex="1" parent="-sEy0Zp4iv_lZndmS8OM-4">
          <mxGeometry y="78" width="276" height="40" as="geometry" />
        </mxCell>
        <mxCell id="-sEy0Zp4iv_lZndmS8OM-9" value="Client" style="swimlane;fontStyle=1;align=center;verticalAlign=top;childLayout=stackLayout;horizontal=1;startSize=26;horizontalStack=0;resizeParent=1;resizeParentMax=0;resizeLast=0;collapsible=1;marginBottom=0;" vertex="1" parent="WIyWlLk6GJQsqaUBKTNV-1">
          <mxGeometry y="50" width="160" height="34" as="geometry" />
        </mxCell>
        <mxCell id="-sEy0Zp4iv_lZndmS8OM-11" value="" style="line;strokeWidth=1;fillColor=none;align=left;verticalAlign=middle;spacingTop=-1;spacingLeft=3;spacingRight=3;rotatable=0;labelPosition=right;points=[];portConstraint=eastwest;" vertex="1" parent="-sEy0Zp4iv_lZndmS8OM-9">
          <mxGeometry y="26" width="160" height="8" as="geometry" />
        </mxCell>
        <mxCell id="-sEy0Zp4iv_lZndmS8OM-13" value="Escudo15" style="swimlane;fontStyle=1;align=center;verticalAlign=top;childLayout=stackLayout;horizontal=1;startSize=26;horizontalStack=0;resizeParent=1;resizeParentMax=0;resizeLast=0;collapsible=1;marginBottom=0;" vertex="1" parent="WIyWlLk6GJQsqaUBKTNV-1">
          <mxGeometry x="567" y="260" width="260" height="60" as="geometry" />
        </mxCell>
        <mxCell id="-sEy0Zp4iv_lZndmS8OM-15" value="" style="line;strokeWidth=1;fillColor=none;align=left;verticalAlign=middle;spacingTop=-1;spacingLeft=3;spacingRight=3;rotatable=0;labelPosition=right;points=[];portConstraint=eastwest;" vertex="1" parent="-sEy0Zp4iv_lZndmS8OM-13">
          <mxGeometry y="26" width="260" height="8" as="geometry" />
        </mxCell>
        <mxCell id="-sEy0Zp4iv_lZndmS8OM-16" value="+ processaDano(Personagem p,int valor): void&#xa;&#xa;&#xa;" style="text;strokeColor=none;fillColor=none;align=left;verticalAlign=top;spacingLeft=4;spacingRight=4;overflow=hidden;rotatable=0;points=[[0,0.5],[1,0.5]];portConstraint=eastwest;" vertex="1" parent="-sEy0Zp4iv_lZndmS8OM-13">
          <mxGeometry y="34" width="260" height="26" as="geometry" />
        </mxCell>
        <mxCell id="-sEy0Zp4iv_lZndmS8OM-17" value="Escudo5" style="swimlane;fontStyle=1;align=center;verticalAlign=top;childLayout=stackLayout;horizontal=1;startSize=26;horizontalStack=0;resizeParent=1;resizeParentMax=0;resizeLast=0;collapsible=1;marginBottom=0;" vertex="1" parent="WIyWlLk6GJQsqaUBKTNV-1">
          <mxGeometry x="30" y="260" width="260" height="60" as="geometry" />
        </mxCell>
        <mxCell id="-sEy0Zp4iv_lZndmS8OM-19" value="" style="line;strokeWidth=1;fillColor=none;align=left;verticalAlign=middle;spacingTop=-1;spacingLeft=3;spacingRight=3;rotatable=0;labelPosition=right;points=[];portConstraint=eastwest;" vertex="1" parent="-sEy0Zp4iv_lZndmS8OM-17">
          <mxGeometry y="26" width="260" height="8" as="geometry" />
        </mxCell>
        <mxCell id="-sEy0Zp4iv_lZndmS8OM-20" value="+ processaDano(Personagem p,int valor): void&#xa;&#xa;&#xa;" style="text;strokeColor=none;fillColor=none;align=left;verticalAlign=top;spacingLeft=4;spacingRight=4;overflow=hidden;rotatable=0;points=[[0,0.5],[1,0.5]];portConstraint=eastwest;" vertex="1" parent="-sEy0Zp4iv_lZndmS8OM-17">
          <mxGeometry y="34" width="260" height="26" as="geometry" />
        </mxCell>
        <mxCell id="-sEy0Zp4iv_lZndmS8OM-21" value="" style="endArrow=block;endSize=16;endFill=0;html=1;rounded=0;exitX=0.5;exitY=0;exitDx=0;exitDy=0;entryX=0.25;entryY=1;entryDx=0;entryDy=0;" edge="1" parent="WIyWlLk6GJQsqaUBKTNV-1" source="-sEy0Zp4iv_lZndmS8OM-17" target="-sEy0Zp4iv_lZndmS8OM-4">
          <mxGeometry width="160" relative="1" as="geometry">
            <mxPoint x="-70" y="90" as="sourcePoint" />
            <mxPoint x="450" y="190" as="targetPoint" />
          </mxGeometry>
        </mxCell>
        <mxCell id="-sEy0Zp4iv_lZndmS8OM-22" value="" style="endArrow=block;endSize=16;endFill=0;html=1;rounded=0;exitX=0.5;exitY=0;exitDx=0;exitDy=0;entryX=0.5;entryY=1;entryDx=0;entryDy=0;" edge="1" parent="WIyWlLk6GJQsqaUBKTNV-1" source="-sEy0Zp4iv_lZndmS8OM-0" target="-sEy0Zp4iv_lZndmS8OM-4">
          <mxGeometry width="160" relative="1" as="geometry">
            <mxPoint x="250" y="340" as="sourcePoint" />
            <mxPoint x="494" y="210" as="targetPoint" />
          </mxGeometry>
        </mxCell>
        <mxCell id="-sEy0Zp4iv_lZndmS8OM-23" value="" style="endArrow=block;endSize=16;endFill=0;html=1;rounded=0;exitX=0.25;exitY=0;exitDx=0;exitDy=0;entryX=0.75;entryY=1;entryDx=0;entryDy=0;" edge="1" parent="WIyWlLk6GJQsqaUBKTNV-1" source="-sEy0Zp4iv_lZndmS8OM-13" target="-sEy0Zp4iv_lZndmS8OM-4">
          <mxGeometry width="160" relative="1" as="geometry">
            <mxPoint x="260" y="350" as="sourcePoint" />
            <mxPoint x="610" y="200" as="targetPoint" />
          </mxGeometry>
        </mxCell>
        <mxCell id="-sEy0Zp4iv_lZndmS8OM-24" value="manda comando" style="html=1;verticalAlign=bottom;endArrow=block;rounded=0;entryX=0;entryY=0.5;entryDx=0;entryDy=0;" edge="1" parent="WIyWlLk6GJQsqaUBKTNV-1" target="-sEy0Zp4iv_lZndmS8OM-7">
          <mxGeometry width="80" relative="1" as="geometry">
            <mxPoint x="80" y="80" as="sourcePoint" />
            <mxPoint x="112" y="200" as="targetPoint" />
            <Array as="points">
              <mxPoint x="80" y="138" />
            </Array>
          </mxGeometry>
        </mxCell>
      </root>
    </mxGraphModel>
  </diagram>
</mxfile>
